# xmcd
#
# Track frame offsets:
#	150
#	19012
#	42840
#
# Disc length: 976 seconds
#
# Revision: 0
# Processed by: cddbd v1.5.2PL0 Copyright (c) Steve Scherf et al.
# Submitted via: audiograbber 1.83.01
#
DISCID=1903ce03
DTITLE=DaDa - Do You Speak Language [CDS)
DYEAR=1995
DGENRE=Dance
TTITLE0=Do You Speak Language
TTITLE1=Do You Speak Language (Peewee Remix)
TTITLE2=Do You Speak Language (Nikomix)
EXTD=TR.
EXTT0=
EXTT1=
EXTT2=
PLAYORDER=
